#VRML V2.0 utf8
# Minimal single-color wire tube, generated for haptic-console-control-unit perfboard wiring diagram.
Shape {
  appearance Appearance {
    material Material {
      diffuseColor 0.9098 0.5686 0.1843
      ambientIntensity 0.4
      specularColor 0.1 0.1 0.1
      shininess 0.05
    }
  }
  geometry IndexedFaceSet {
    solid TRUE
    coord Coordinate {
      point [
            -0.5000 0.4000 0.4000,
            0.5000 0.4000 0.4000,
            -0.5000 0.3236 0.6351,
            0.5000 0.3236 0.6351,
            -0.5000 0.1236 0.7804,
            0.5000 0.1236 0.7804,
            -0.5000 -0.1236 0.7804,
            0.5000 -0.1236 0.7804,
            -0.5000 -0.3236 0.6351,
            0.5000 -0.3236 0.6351,
            -0.5000 -0.4000 0.4000,
            0.5000 -0.4000 0.4000,
            -0.5000 -0.3236 0.1649,
            0.5000 -0.3236 0.1649,
            -0.5000 -0.1236 0.0196,
            0.5000 -0.1236 0.0196,
            -0.5000 0.1236 0.0196,
            0.5000 0.1236 0.0196,
            -0.5000 0.3236 0.1649,
            0.5000 0.3236 0.1649,
            -0.5000 0.0000 0.4000,
            0.5000 0.0000 0.4000
      ]
    }
    coordIndex [
            0 2 3 1 -1,
            2 4 5 3 -1,
            4 6 7 5 -1,
            6 8 9 7 -1,
            8 10 11 9 -1,
            10 12 13 11 -1,
            12 14 15 13 -1,
            14 16 17 15 -1,
            16 18 19 17 -1,
            18 0 1 19 -1,
            20 2 0 -1 -1,
            20 4 2 -1 -1,
            20 6 4 -1 -1,
            20 8 6 -1 -1,
            20 10 8 -1 -1,
            20 12 10 -1 -1,
            20 14 12 -1 -1,
            20 16 14 -1 -1,
            20 18 16 -1 -1,
            20 0 18 -1 -1,
            21 1 3 -1 -1,
            21 3 5 -1 -1,
            21 5 7 -1 -1,
            21 7 9 -1 -1,
            21 9 11 -1 -1,
            21 11 13 -1 -1,
            21 13 15 -1 -1,
            21 15 17 -1 -1,
            21 17 19 -1 -1,
            21 19 1 -1 -1
    ]
  }
}
