<svg xmlns="http://www.w3.org/2000/svg" xmlns:xlink="http://www.w3.org/1999/xlink" xml:lang="en" height="799.5pt" width="974.432pt" viewBox="-389.8 -364.59999999999997 974.432 799.5"><polygon points="285.732,-48.6 298.332,-39.6 285.732,-30.6 " style="stroke:black;fill:none;stroke-width:1.6;stroke-dasharray:-;stroke-linecap:round;stroke-linejoin:round;" /><polygon points="238.032,-61.2 238.032,-188.64 259.632,-188.64 259.632,-61.2 " style="stroke:black;fill:none;stroke-width:1.6;stroke-dasharray:-;stroke-linecap:round;stroke-linejoin:round;" /><path d="M 0.0,-0.0 L 151.632,-0 L 151.632,-208.8 L 0,-208.8 L 0,-0" style="stroke:black;fill:none;stroke-width:1.6;stroke-dasharray:-;stroke-linecap:round;stroke-linejoin:round;" /><path d="M 0.0,-61.199999999999996 L -86.4,-61.2" style="stroke:black;fill:none;stroke-width:1.6;stroke-dasharray:-;stroke-linecap:round;stroke-linejoin:round;" /><path d="M 0.0,-82.8 L -86.4,-82.8" style="stroke:black;fill:none;stroke-width:1.6;stroke-dasharray:-;stroke-linecap:round;stroke-linejoin:round;" /><path d="M 0.0,-104.39999999999999 L -86.4,-104.4" style="stroke:black;fill:none;stroke-width:1.6;stroke-dasharray:-;stroke-linecap:round;stroke-linejoin:round;" /><path d="M 0.0,-126.0 L -86.4,-126" style="stroke:black;fill:none;stroke-width:1.6;stroke-dasharray:-;stroke-linecap:round;stroke-linejoin:round;" /><path d="M 0.0,-147.6 L -86.4,-147.6" style="stroke:black;fill:none;stroke-width:1.6;stroke-dasharray:-;stroke-linecap:round;stroke-linejoin:round;" /><path d="M 151.632,-39.6 L 238.032,-39.6" style="stroke:black;fill:none;stroke-width:1.6;stroke-dasharray:-;stroke-linecap:round;stroke-linejoin:round;" /><path d="M 151.632,-61.2 L 238.032,-61.2" style="stroke:black;fill:none;stroke-width:1.6;stroke-dasharray:-;stroke-linecap:round;stroke-linejoin:round;" /><path d="M 151.632,-82.8 L 238.032,-82.8" style="stroke:black;fill:none;stroke-width:1.6;stroke-dasharray:-;stroke-linecap:round;stroke-linejoin:round;" /><path d="M 151.632,-104.39999999999999 L 238.032,-104.4" style="stroke:black;fill:none;stroke-width:1.6;stroke-dasharray:-;stroke-linecap:round;stroke-linejoin:round;" /><path d="M 151.632,-126.0 L 238.032,-126" style="stroke:black;fill:none;stroke-width:1.6;stroke-dasharray:-;stroke-linecap:round;stroke-linejoin:round;" /><path d="M 151.632,-147.6 L 238.032,-147.6" style="stroke:black;fill:none;stroke-width:1.6;stroke-dasharray:-;stroke-linecap:round;stroke-linejoin:round;" /><path d="M 151.632,-169.2 L 238.032,-169.2" style="stroke:black;fill:none;stroke-width:1.6;stroke-dasharray:-;stroke-linecap:round;stroke-linejoin:round;" /><path d="M -280.8,-165.6 L -151.2,-165.6 L -151.2,-255.6 L -280.8,-255.6 L -280.8,-165.6" style="stroke:black;fill:none;stroke-width:1.6;stroke-dasharray:-;stroke-linecap:round;stroke-linejoin:round;" /><path d="M -151.2,-210.6 L -133.2,-210.6" style="stroke:black;fill:none;stroke-width:1.6;stroke-dasharray:-;stroke-linecap:round;stroke-linejoin:round;" /><path d="M -86.39999999999999,-61.199999999999996 L -133.2,-61.2" style="stroke:black;fill:none;stroke-width:1.6;stroke-dasharray:-;stroke-linecap:round;stroke-linejoin:round;" /><path d="M -133.20000000000002,-61.199999999999996 L -133.2,-210.6" style="stroke:black;fill:none;stroke-width:1.6;stroke-dasharray:-;stroke-linecap:round;stroke-linejoin:round;" /><path d="M -280.8,-82.8 L -151.2,-82.8 L -151.2,-172.8 L -280.8,-172.8 L -280.8,-82.8" style="stroke:black;fill:none;stroke-width:1.6;stroke-dasharray:-;stroke-linecap:round;stroke-linejoin:round;" /><path d="M -151.2,-127.8 L -133.2,-127.8" style="stroke:black;fill:none;stroke-width:1.6;stroke-dasharray:-;stroke-linecap:round;stroke-linejoin:round;" /><path d="M -86.39999999999999,-82.8 L -133.2,-82.8" style="stroke:black;fill:none;stroke-width:1.6;stroke-dasharray:-;stroke-linecap:round;stroke-linejoin:round;" /><path d="M -133.20000000000002,-82.8 L -133.2,-127.8" style="stroke:black;fill:none;stroke-width:1.6;stroke-dasharray:-;stroke-linecap:round;stroke-linejoin:round;" /><path d="M -280.8,-0.0 L -151.2,-0 L -151.2,-90 L -280.8,-90 L -280.8,-0" style="stroke:black;fill:none;stroke-width:1.6;stroke-dasharray:-;stroke-linecap:round;stroke-linejoin:round;" /><path d="M -151.2,-45.0 L -133.2,-45" style="stroke:black;fill:none;stroke-width:1.6;stroke-dasharray:-;stroke-linecap:round;stroke-linejoin:round;" /><path d="M -86.39999999999999,-104.39999999999999 L -133.2,-104.4" style="stroke:black;fill:none;stroke-width:1.6;stroke-dasharray:-;stroke-linecap:round;stroke-linejoin:round;" /><path d="M -133.20000000000002,-104.39999999999999 L -133.2,-45" style="stroke:black;fill:none;stroke-width:1.6;stroke-dasharray:-;stroke-linecap:round;stroke-linejoin:round;" /><path d="M -280.8,82.8 L -151.2,82.8 L -151.2,-7.2 L -280.8,-7.2 L -280.8,82.8" style="stroke:black;fill:none;stroke-width:1.6;stroke-dasharray:-;stroke-linecap:round;stroke-linejoin:round;" /><path d="M -151.2,37.8 L -133.2,37.8" style="stroke:black;fill:none;stroke-width:1.6;stroke-dasharray:-;stroke-linecap:round;stroke-linejoin:round;" /><path d="M -86.39999999999999,-126.0 L -133.2,-126" style="stroke:black;fill:none;stroke-width:1.6;stroke-dasharray:-;stroke-linecap:round;stroke-linejoin:round;" /><path d="M -133.20000000000002,-126.0 L -133.2,37.8" style="stroke:black;fill:none;stroke-width:1.6;stroke-dasharray:-;stroke-linecap:round;stroke-linejoin:round;" /><path d="M -280.8,165.6 L -151.2,165.6 L -151.2,75.6 L -280.8,75.6 L -280.8,165.6" style="stroke:black;fill:none;stroke-width:1.6;stroke-dasharray:-;stroke-linecap:round;stroke-linejoin:round;" /><path d="M -151.2,120.6 L -133.2,120.6" style="stroke:black;fill:none;stroke-width:1.6;stroke-dasharray:-;stroke-linecap:round;stroke-linejoin:round;" /><path d="M -86.39999999999999,-147.6 L -133.2,-147.6" style="stroke:black;fill:none;stroke-width:1.6;stroke-dasharray:-;stroke-linecap:round;stroke-linejoin:round;" /><path d="M -133.20000000000002,-147.6 L -133.2,120.6" style="stroke:black;fill:none;stroke-width:1.6;stroke-dasharray:-;stroke-linecap:round;stroke-linejoin:round;" /><path d="M 238.032,-39.6 L 285.732,-39.6 M 298.332,-48.6 L 298.332,-30.6 M 298.332,-39.6 L 346.032,-39.6" style="stroke:black;fill:none;stroke-width:1.6;stroke-dasharray:-;stroke-linecap:round;stroke-linejoin:round;" /><path d="M 294.73199999999997,-53.1 L 300.16,-62.599" style="stroke:black;fill:none;stroke-width:1.6;stroke-dasharray:-;stroke-linecap:round;stroke-linejoin:round;" /><path d="M 302.74 -67.114 L 302.66 -61.17 L 297.659 -64.028 Z" style="stroke:black;fill:black;stroke-linecap:butt;stroke-linejoin:miter;" /><path d="M 286.632,-53.1 L 292.06,-62.599" style="stroke:black;fill:none;stroke-width:1.6;stroke-dasharray:-;stroke-linecap:round;stroke-linejoin:round;" /><path d="M 294.64 -67.114 L 294.56 -61.17 L 289.559 -64.028 Z" style="stroke:black;fill:black;stroke-linecap:butt;stroke-linejoin:miter;" /><path d="M 346.032,-39.6 L 382.032,-39.6 L 385.032,-48.6 L 391.032,-30.6 L 397.032,-48.6 L 403.032,-30.6 L 409.032,-48.6 L 415.032,-30.6 L 418.032,-39.6 L 454.032,-39.6" style="stroke:black;fill:none;stroke-width:1.6;stroke-dasharray:-;stroke-linecap:round;stroke-linejoin:round;" /><path d="M 454.032,-39.6 L 464.832,-39.6 L 475.632,-39.6" style="stroke:black;fill:none;stroke-width:1.6;stroke-dasharray:-;stroke-linecap:round;stroke-linejoin:round;" /><path d="M 475.632,-39.6 L 461.232,-39.6 L 461.232,-48.6 L 461.232,-30.6 M 456.912,-45.9 L 456.912,-33.3 M 452.592,-41.4 L 452.592,-37.8" style="stroke:black;fill:none;stroke-width:1.6;stroke-dasharray:-;stroke-linecap:round;stroke-linejoin:round;" /><path d="M 238.032,-82.8 L 259.632,-82.8 L 281.232,-82.8" style="stroke:black;fill:none;stroke-width:1.6;stroke-dasharray:-;stroke-linecap:round;stroke-linejoin:round;" /><path d="M 281.232,-82.8 L 281.232,-46.8 L 290.232,-43.8 L 272.232,-37.8 L 290.232,-31.8 L 272.232,-25.8 L 290.232,-19.8 L 272.232,-13.8 L 281.232,-10.8 L 281.232,25.2" style="stroke:black;fill:none;stroke-width:1.6;stroke-dasharray:-;stroke-linecap:round;stroke-linejoin:round;" /><path d="M 281.23199999999997,25.200000000000006 L 281.232,100.8 L 281.232,176.4" style="stroke:black;fill:none;stroke-width:1.6;stroke-dasharray:-;stroke-linecap:round;stroke-linejoin:round;" /><path d="M 238.032,-104.39999999999999 L 259.632,-104.4 L 281.232,-104.4" style="stroke:black;fill:none;stroke-width:1.6;stroke-dasharray:-;stroke-linecap:round;stroke-linejoin:round;" /><path d="M 281.232,-104.39999999999999 L 281.232,-68.4 L 290.232,-65.4 L 272.232,-59.4 L 290.232,-53.4 L 272.232,-47.4 L 290.232,-41.4 L 272.232,-35.4 L 281.232,-32.4 L 281.232,3.6" style="stroke:black;fill:none;stroke-width:1.6;stroke-dasharray:-;stroke-linecap:round;stroke-linejoin:round;" /><path d="M 281.23199999999997,3.600000000000003 L 281.232,68.4 L 281.232,133.2" style="stroke:black;fill:none;stroke-width:1.6;stroke-dasharray:-;stroke-linecap:round;stroke-linejoin:round;" /><path d="M 281.232,-126.0 L 299.232,-126 L 317.232,-126" style="stroke:black;fill:none;stroke-width:1.6;stroke-dasharray:-;stroke-linecap:round;stroke-linejoin:round;" /><text x="-2.6999999999999997" y="-74.9" dominant-baseline="ideographic" fill="black" font-size="11" font-family="sans" text-anchor="end"><tspan x="-2.6999999999999997" dy="11">2-5</tspan></text><text x="5.3999999999999995" y="-75.19999999999999" dominant-baseline="central" fill="black" font-size="14" font-family="sans" text-anchor="start"><tspan x="5.3999999999999995" dy="14">D0–D3</tspan></text><text x="-2.6999999999999997" y="-96.5" dominant-baseline="ideographic" fill="black" font-size="11" font-family="sans" text-anchor="end"><tspan x="-2.6999999999999997" dy="11">6-9</tspan></text><text x="5.3999999999999995" y="-96.8" dominant-baseline="central" fill="black" font-size="14" font-family="sans" text-anchor="start"><tspan x="5.3999999999999995" dy="14">D4–D7</tspan></text><text x="-2.6999999999999997" y="-118.10000000000001" dominant-baseline="ideographic" fill="black" font-size="11" font-family="sans" text-anchor="end"><tspan x="-2.6999999999999997" dy="11">10-14</tspan></text><text x="5.3999999999999995" y="-118.39999999999999" dominant-baseline="central" fill="black" font-size="14" font-family="sans" text-anchor="start"><tspan x="5.3999999999999995" dy="14">D10–D14</tspan></text><text x="-2.6999999999999997" y="-139.70000000000002" dominant-baseline="ideographic" fill="black" font-size="11" font-family="sans" text-anchor="end"><tspan x="-2.6999999999999997" dy="11">20-27</tspan></text><text x="5.3999999999999995" y="-140.0" dominant-baseline="central" fill="black" font-size="14" font-family="sans" text-anchor="start"><tspan x="5.3999999999999995" dy="14">D20–D27</tspan></text><text x="-2.6999999999999997" y="-161.29999999999998" dominant-baseline="ideographic" fill="black" font-size="11" font-family="sans" text-anchor="end"><tspan x="-2.6999999999999997" dy="11">28-35</tspan></text><text x="5.3999999999999995" y="-161.6" dominant-baseline="central" fill="black" font-size="14" font-family="sans" text-anchor="start"><tspan x="5.3999999999999995" dy="14">D28–D35</tspan></text><text x="154.332" y="-53.300000000000004" dominant-baseline="ideographic" fill="black" font-size="11" font-family="sans" text-anchor="start"><tspan x="154.332" dy="11">8/9/36-38</tspan></text><text x="146.23199999999997" y="-53.6" dominant-baseline="central" fill="black" font-size="14" font-family="sans" text-anchor="end"><tspan x="146.23199999999997" dy="14">LED PWM</tspan></text><text x="154.332" y="-74.9" dominant-baseline="ideographic" fill="black" font-size="11" font-family="sans" text-anchor="start"><tspan x="154.332" dy="11">15-17/39-41</tspan></text><text x="146.23199999999997" y="-75.2" dominant-baseline="central" fill="black" font-size="14" font-family="sans" text-anchor="end"><tspan x="146.23199999999997" dy="14">IRQ1–IRQ6</tspan></text><text x="154.332" y="-96.5" dominant-baseline="ideographic" fill="black" font-size="11" font-family="sans" text-anchor="start"><tspan x="154.332" dy="11">19</tspan></text><text x="146.23199999999997" y="-96.8" dominant-baseline="central" fill="black" font-size="14" font-family="sans" text-anchor="end"><tspan x="146.23199999999997" dy="14">SCL</tspan></text><text x="154.332" y="-118.10000000000001" dominant-baseline="ideographic" fill="black" font-size="11" font-family="sans" text-anchor="start"><tspan x="154.332" dy="11">18</tspan></text><text x="146.23199999999997" y="-118.39999999999999" dominant-baseline="central" fill="black" font-size="14" font-family="sans" text-anchor="end"><tspan x="146.23199999999997" dy="14">SDA</tspan></text><text x="146.23199999999997" y="-140.0" dominant-baseline="central" fill="black" font-size="14" font-family="sans" text-anchor="end"><tspan x="146.23199999999997" dy="14">3V3</tspan></text><text x="146.23199999999997" y="-161.6" dominant-baseline="central" fill="black" font-size="14" font-family="sans" text-anchor="end"><tspan x="146.23199999999997" dy="14">5V</tspan></text><text x="146.23199999999997" y="-183.2" dominant-baseline="central" fill="black" font-size="14" font-family="sans" text-anchor="end"><tspan x="146.23199999999997" dy="14">GND</tspan></text><text x="75.816" y="-0.20000000000000284" dominant-baseline="hanging" fill="black" font-size="11" font-family="sans" text-anchor="middle"><tspan x="75.816" dy="11">Teensy 4.1</tspan><tspan x="75.816" dy="11">U1</tspan></text><text x="-148.5" y="-224.29999999999998" dominant-baseline="ideographic" fill="black" font-size="11" font-family="sans" text-anchor="start"><tspan x="-148.5" dy="11">1</tspan></text><text x="-156.6" y="-224.6" dominant-baseline="central" fill="black" font-size="14" font-family="sans" text-anchor="end"><tspan x="-156.6" dy="14">IO</tspan></text><text x="-212.39999999999998" y="-225.45" dominant-baseline="central" fill="black" font-size="7.5" font-family="sans" text-anchor="middle"><tspan x="-212.39999999999998" dy="7.5">J1 — joystick 1</tspan><tspan x="-212.39999999999998" dy="7.5">JST-XH 5, U/D/L/R + GND</tspan></text><circle cx="-133.2" cy="-210.6" r="2.7" style="stroke:black;fill:black;stroke-width:1.6;stroke-dasharray:-;" /><text x="-148.5" y="-141.5" dominant-baseline="ideographic" fill="black" font-size="11" font-family="sans" text-anchor="start"><tspan x="-148.5" dy="11">1</tspan></text><text x="-156.6" y="-141.8" dominant-baseline="central" fill="black" font-size="14" font-family="sans" text-anchor="end"><tspan x="-156.6" dy="14">IO</tspan></text><text x="-212.39999999999998" y="-142.65" dominant-baseline="central" fill="black" font-size="7.5" font-family="sans" text-anchor="middle"><tspan x="-212.39999999999998" dy="7.5">J2 — joystick 2</tspan><tspan x="-212.39999999999998" dy="7.5">JST-XH 5, U/D/L/R + GND</tspan></text><circle cx="-133.2" cy="-127.8" r="2.7" style="stroke:black;fill:black;stroke-width:1.6;stroke-dasharray:-;" /><text x="-148.5" y="-58.699999999999996" dominant-baseline="ideographic" fill="black" font-size="11" font-family="sans" text-anchor="start"><tspan x="-148.5" dy="11">1</tspan></text><text x="-156.6" y="-59.0" dominant-baseline="central" fill="black" font-size="14" font-family="sans" text-anchor="end"><tspan x="-156.6" dy="14">IO</tspan></text><text x="-212.39999999999998" y="-59.85" dominant-baseline="central" fill="black" font-size="7.5" font-family="sans" text-anchor="middle"><tspan x="-212.39999999999998" dy="7.5">CB1–CB5 — command buttons</tspan><tspan x="-212.39999999999998" dy="7.5">JST-XH 4 ×5</tspan></text><circle cx="-133.2" cy="-45" r="2.7" style="stroke:black;fill:black;stroke-width:1.6;stroke-dasharray:-;" /><text x="-148.5" y="24.099999999999994" dominant-baseline="ideographic" fill="black" font-size="11" font-family="sans" text-anchor="start"><tspan x="-148.5" dy="11">1</tspan></text><text x="-156.6" y="23.799999999999997" dominant-baseline="central" fill="black" font-size="14" font-family="sans" text-anchor="end"><tspan x="-156.6" dy="14">IO</tspan></text><text x="-212.39999999999998" y="22.94999999999999" dominant-baseline="central" fill="black" font-size="7.5" font-family="sans" text-anchor="middle"><tspan x="-212.39999999999998" dy="7.5">B1–B8 — action buttons</tspan><tspan x="-212.39999999999998" dy="7.5">JST-XH 2 ×8</tspan></text><circle cx="-133.2" cy="37.8" r="2.7" style="stroke:black;fill:black;stroke-width:1.6;stroke-dasharray:-;" /><text x="-148.5" y="106.89999999999998" dominant-baseline="ideographic" fill="black" font-size="11" font-family="sans" text-anchor="start"><tspan x="-148.5" dy="11">1</tspan></text><text x="-156.6" y="106.6" dominant-baseline="central" fill="black" font-size="14" font-family="sans" text-anchor="end"><tspan x="-156.6" dy="14">IO</tspan></text><text x="-212.39999999999998" y="105.74999999999999" dominant-baseline="central" fill="black" font-size="7.5" font-family="sans" text-anchor="middle"><tspan x="-212.39999999999998" dy="7.5">NP — 4×4 keypad</tspan><tspan x="-212.39999999999998" dy="7.5">JST-XH 8</tspan></text><circle cx="-133.2" cy="120.6" r="2.7" style="stroke:black;fill:black;stroke-width:1.6;stroke-dasharray:-;" /><text x="464.11199999999997" y="-45.6" dominant-baseline="ideographic" fill="black" font-size="6" font-family="sans" text-anchor="middle"><tspan x="464.11199999999997" dy="6">GND</tspan></text><text x="421.632" y="-82.5" dominant-baseline="central" fill="black" font-size="7" font-family="sans" text-anchor="middle"><tspan x="421.632" dy="7">LED_ARM…LED_ALT ×5</tspan><tspan x="421.632" dy="7">R1–R5 220Ω → GND</tspan></text><text x="277.632" y="-15.200000000000006" dominant-baseline="hanging" fill="black" font-size="8" font-family="sans" text-anchor="middle"><tspan x="277.632" dy="8">S1–S6 — I2C rail slots</tspan><tspan x="277.632" dy="8">JST-XH 8 ×6 · GND/5V/3V3/SDA/SCL + IRQ</tspan></text><text x="245.23199999999997" y="-107.3" dominant-baseline="central" fill="black" font-size="6.5" font-family="sans" text-anchor="middle"><tspan x="245.23199999999997" dy="6.5">R13 4k7</tspan></text><text x="324.432" y="-118.10000000000001" dominant-baseline="central" fill="black" font-size="6.5" font-family="sans" text-anchor="middle"><tspan x="324.432" dy="6.5">R12 4k7</tspan></text><text x="335.23199999999997" y="-136.6" dominant-baseline="central" fill="black" font-size="7" font-family="sans" text-anchor="middle"><tspan x="335.23199999999997" dy="7">3V3</tspan></text><text x="284.832" y="-139.70000000000002" dominant-baseline="central" fill="black" font-size="6.5" font-family="sans" text-anchor="start"><tspan x="284.832" dy="6.5">3V3</tspan></text><text x="284.832" y="-161.29999999999998" dominant-baseline="central" fill="black" font-size="6.5" font-family="sans" text-anchor="start"><tspan x="284.832" dy="6.5">5V</tspan></text><text x="284.832" y="-182.89999999999998" dominant-baseline="central" fill="black" font-size="6.5" font-family="sans" text-anchor="start"><tspan x="284.832" dy="6.5">GND</tspan></text><text x="3.6" y="309.40000000000003" dominant-baseline="central" fill="black" font-size="11" font-family="sans" text-anchor="middle"><tspan x="3.6" dy="11">Haptic Console — Control Unit (M6): Teensy 4.1 + JST-XH peripherals + I2C rail</tspan></text><circle cx="248.832" cy="-177.84" r="3.6" style="stroke:black;fill:white;stroke-width:1.6;stroke-dasharray:-;" /><circle cx="248.832" cy="-162.72" r="3.6" style="stroke:black;fill:white;stroke-width:1.6;stroke-dasharray:-;" /><circle cx="248.832" cy="-147.6" r="3.6" style="stroke:black;fill:white;stroke-width:1.6;stroke-dasharray:-;" /><circle cx="248.832" cy="-132.48" r="3.6" style="stroke:black;fill:white;stroke-width:1.6;stroke-dasharray:-;" /><circle cx="248.832" cy="-117.36" r="3.6" style="stroke:black;fill:white;stroke-width:1.6;stroke-dasharray:-;" /><circle cx="248.832" cy="-102.24" r="3.6" style="stroke:black;fill:white;stroke-width:1.6;stroke-dasharray:-;" /><circle cx="248.832" cy="-87.12" r="3.6" style="stroke:black;fill:white;stroke-width:1.6;stroke-dasharray:-;" /><circle cx="248.832" cy="-72" r="3.6" style="stroke:black;fill:white;stroke-width:1.6;stroke-dasharray:-;" /></svg>